<svg xmlns="http://www.w3.org/2000/svg" viewBox="0 0 100 100" style="background-color: #1a1a1a;">
  <defs>
    <path id="base_bubble" d="M30,15 H70 A15,15 0 0 1 85,30 V50 A15,15 0 0 1 70,65 H45 L30,85 V65 H15 A15,15 0 0 1 0,50 V30 A15,15 0 0 1 15,15 Z" />
  </defs>

  <use href="#base_bubble" x="10" y="8" fill="#00e5ff"/>
  <use href="#base_bubble" x="5" y="4" fill="#d500f9"/>
  
  <path d="M30,15 H70 A15,15 0 0 1 85,30 V50 A15,15 0 0 1 70,65 H45 L30,85 V65 H15 A15,15 0 0 1 0,50 V30 A15,15 0 0 1 15,15 Z" fill="#e8f5e9" stroke="#1a1a1a" stroke-width="1.5"/>

  <rect x="25" y="28" width="50" height="26" rx="6" ry="6" fill="#1a1a1a"/>

  <rect x="37" y="36" width="9" height="11" rx="4.5" ry="4.5" fill="#1a1a1a"/>
  <rect x="54" y="36" width="9" height="11" rx="4.5" ry="4.5" fill="#1a1a1a"/>
</svg>
